<?xml version="1.0" encoding="iso-8859-1"?>
<svg version="1.1" id="Layer_1" xmlns="http://www.w3.org/2000/svg" fill="#ecedee" xmlns:xlink="http://www.w3.org/1999/xlink" x="0px" y="0px"
	 viewBox="0 0 512.001 512.001" style="enable-background:new 0 0 512.001 512.001;" xml:space="preserve">
	<g>
		<path d="M488.977,5.382c-1.866-4.463-6.998-6.569-11.461-4.702l-91.454,38.235c-1.487,0.621-2.773,1.641-3.719,2.946
			l-49.13,67.885H182.395c-4.38-40.153-38.482-71.509-79.782-71.509c-27.922,0-52.548,14.339-66.934,36.031
			c-0.063,0.081-0.133,0.155-0.194,0.239c-0.271,0.371-0.498,0.759-0.701,1.155c-7.865,12.407-12.441,27.096-12.441,42.842
			c0,44.261,36.009,80.269,80.27,80.269c15.179,0,28.976-3.782,41.14-11.227l12.551,14.564c3.159,3.666,8.692,4.075,12.353,0.918
			c3.666-3.158,4.076-8.688,0.918-12.355L146.417,163.8c14.451-7.252,28.583-10.111,42.101-8.468
			c15.145,1.84,25.076,8.706,36.574,16.656c8.44,5.836,17.165,11.87,28.707,16.562c11.848,4.814,24.499,7.22,37.882,7.22
			c6.899,0,13.994-0.645,21.271-1.924l-70.322,81.607l-49.408-57.336c-3.159-3.665-8.691-4.074-12.353-0.918
			c-3.666,3.158-4.076,8.69-0.918,12.355l52.682,61.135c0.374,0.433,0.79,0.819,1.232,1.166v161.128l-85.218,42.415
			c-3.639,1.812-5.555,5.889-4.624,9.847s4.462,6.755,8.527,6.755h180.161c4.066,0,7.596-2.797,8.527-6.755
			s-0.985-8.035-4.624-9.847l-85.218-42.411V291.855c0.443-0.347,0.858-0.732,1.232-1.166l143.446-166.466
			c2.235-2.595,2.754-6.254,1.328-9.368c-1.428-3.114-4.539-5.11-7.963-5.11H354.84l40.251-55.618l89.18-37.286
			C488.738,14.976,490.842,9.845,488.977,5.382z M295.451,494.48H189.81l52.817-26.288L295.451,494.48z M164.739,109.746h-53.125
			l26.703-42.801C152.369,76.707,162.255,92.051,164.739,109.746z M102.615,55.756c6.987,0,13.704,1.166,19.986,3.282L93.377,105.88
			L54.898,77.822C66.416,64.334,83.528,55.756,102.615,55.756z M39.864,118.505c0-9.223,2.017-17.979,5.606-25.876l38.583,28.134
			l-26.209,41.651C46.734,151.09,39.864,135.588,39.864,118.505z M102.615,181.255c-11.195,0-21.706-2.961-30.815-8.12
			l25.127-39.932l35.191,40.839C123.319,178.828,113.436,181.255,102.615,181.255z M370.327,127.265l-37.019,42.962
			c-27.409,9.897-51.935,10.617-72.909,2.093c-9.757-3.966-17.68-9.443-25.34-14.741c-12.286-8.495-24.988-17.277-44.426-19.638
			c-18.277-2.22-37.077,1.91-55.952,12.238l-19.745-22.914h222.737c0.002,0,0.005,0,0.007,0c0.003,0,0.007,0,0.009,0H370.327z"/>
	</g>
</svg>
